<svg width="636" height="143" viewBox="0 0 636 143" fill="none" xmlns="http://www.w3.org/2000/svg">
<path d="M100.038 37.919C98.4687 12.6056 71.5886 3.67452 70.3737 3.31727L60.0974 0V3.2152V121.412C54.7315 117.789 49.4669 112.736 49.4162 102.733C49.4162 94.2106 53.1116 88.7498 57.7688 84.7691V67.5703C50.5805 71.551 36.0015 81.8091 34.7865 100.335L34.7359 100.947L34.6853 102.682V102.784V102.835V103.04L34.7865 105.183C36.4571 130.292 63.236 139.274 64.4509 139.683L74.7271 143V21.5368C80.1437 25.1602 85.4083 30.2127 85.4083 40.2666V40.3176C85.4083 48.8405 81.7129 54.3522 77.0051 58.384V75.5318C84.1934 71.6021 98.8737 61.293 100.038 42.6142L100.089 40.4707V40.3687V40.3176V40.2666L100.038 37.919Z" fill="#DC3B41"/>
<path d="M117.344 25.4678L112.383 15.7711C112.383 15.7711 107.574 20.6194 100.335 27.9174C101.347 30.9285 102.107 34.1437 102.309 37.7672L102.41 40.37L102.309 42.7686C102.208 44.5038 101.854 46.0349 101.55 47.6169C105.043 44.1466 107.27 41.85 107.675 41.4927C108.738 46.8004 108.941 52.7715 104.992 58.7426H120.837C125.798 42.5645 117.799 26.3354 117.344 25.4678Z" fill="#BB2F3B"/>
<path d="M40.0512 39.449L41.7724 39.5001C39.5956 37.3056 38.077 35.8255 37.8239 35.5193C43.9997 34.2945 50.9855 34.1414 57.8195 40.5718V23.2199C40.9118 16.126 22.8398 25.2613 21.9286 25.7716L12.3611 30.7731L14.6391 33.0696C14.6391 33.0696 18.6382 37.1014 24.4091 42.9194C28.2563 41.0821 32.6604 39.8063 37.672 39.5001H40.0512V39.449Z" fill="#BB2F3B"/>
<path d="M17.5761 117.636L22.537 127.333L24.815 125.036C24.815 125.036 28.6623 121.157 34.6356 115.135C33.522 112.124 32.7626 108.807 32.5095 105.132V102.683L32.6108 100.182C32.712 98.4978 33.0664 97.0178 33.3701 95.4867C29.8772 99.0081 27.6498 101.254 27.2955 101.611C26.2324 96.3033 25.9793 90.3322 29.9278 84.4121H14.0326C9.07163 100.59 17.1205 116.768 17.5761 117.636Z" fill="#BB2F3B"/>
<path d="M94.9594 103.653L93.3902 103.602C95.415 105.643 96.7818 107.072 97.0856 107.327C90.9097 108.552 83.8733 108.705 77.0393 102.224V119.525C93.9976 126.67 112.019 117.534 112.981 117.075L122.599 112.074L120.321 109.777C120.321 109.777 116.423 105.847 110.753 100.132C106.856 102.02 102.451 103.296 97.3893 103.653H94.9594Z" fill="#BB2F3B"/>
<path d="M40.1431 41.7981H40.0925H39.9912L37.612 41.8491C12.5036 43.4312 3.64477 70.5308 3.29042 71.7556L0 82.1157H3.18917H38.5738C43.0792 75.0729 49.1032 70.2756 53.7604 67.3156H21.3624C24.9566 61.8548 29.9681 56.5472 39.9406 56.5472C48.3944 56.5472 53.7604 60.2728 57.7089 64.968C57.7595 64.968 57.7595 64.968 57.7595 64.9169V46.6464C53.406 44.0947 48.2932 42.2574 42.2186 41.8491L40.1431 41.7981Z" fill="#DC3B41"/>
<path d="M131.761 61.0389H96.225C91.7196 68.0817 85.645 72.93 81.0384 75.839H113.588C109.994 81.2487 104.983 86.5563 95.01 86.5563C86.5562 86.5563 81.1397 82.8308 77.1405 78.0845C77.0899 78.0845 77.0393 78.1356 77.0393 78.1356V96.4061C81.3928 99.0089 86.6068 100.897 92.6815 101.254L94.8582 101.356H94.9088H95.01H95.1113L97.3387 101.254C122.447 99.6723 131.306 72.5728 131.711 71.3479L135.001 60.9878H131.761V61.0389Z" fill="#DC3B41"/>
<path d="M405.179 95.3822L401.585 91.5035C397.839 94.5656 393.333 96.1477 387.765 96.1477C378.046 96.1477 372.174 92.0649 372.174 83.44C372.174 76.7544 375.869 72.7227 381.893 69.7116L380.678 68.3337C378.147 65.5267 376.527 62.4646 376.527 58.637C376.527 50.8287 382.652 46.7969 390.651 46.7969C396.472 46.7969 400.269 48.5831 404.825 51.7983L400.269 58.6881C397.13 56.2894 393.789 55.2687 390.397 55.2687C387.613 55.2687 385.943 56.4425 385.943 58.4329C385.943 60.4743 386.955 61.8522 388.474 63.6384L401.534 78.6938C402.597 76.4993 403.711 73.8965 404.875 70.7833L412.519 73.233C411.051 77.8772 409.279 81.909 407.153 85.1752L416.113 95.4332H405.179V95.3822ZM386.905 75.3255C383.159 77.3158 381.69 79.7655 381.69 82.6234C381.69 85.6855 384.12 87.6759 388.879 87.6759C391.815 87.6759 394.245 87.0125 396.219 85.5324L386.905 75.3255Z" fill="#DC3B41"/>
<path d="M171.956 78.4374H161.528V95.381H152.011V47.5612H172.766C181.726 47.5612 189.117 52.5626 189.117 62.7186C189.117 73.7932 181.777 78.4374 171.956 78.4374ZM172.412 56.8496H161.528V69.149H172.564C176.968 69.149 179.347 67.1076 179.347 62.9228C179.347 58.7889 176.614 56.8496 172.412 56.8496Z" fill="#221F1F"/>
<path d="M194.076 95.381V47.5612H203.542V85.9906H227.334V95.381H194.076Z" fill="#221F1F"/>
<path d="M264.949 95.381L261.203 84.7147H243.84L240.094 95.381H229.919L248.092 47.5612H257.305L275.326 95.381H264.949ZM254.926 66.9545C253.964 64.1476 253.053 61.2896 252.547 59.5034C252.091 61.2896 251.129 64.1476 250.167 66.9545L247.13 75.6305H257.963L254.926 66.9545Z" fill="#221F1F"/>
<path d="M308.794 95.381L291.38 69.2511C290.215 67.4649 288.646 65.0662 288.039 63.8414C288.039 65.6276 288.19 71.6497 288.19 74.3036V95.381H278.825V47.5612H287.887L304.693 72.8235C305.858 74.6098 307.376 77.0084 308.034 78.2332C308.034 76.447 307.882 70.4249 307.882 67.7711V47.5612H317.247V95.381H308.794Z" fill="#221F1F"/>
<path d="M343.477 96.1477C330.518 96.1477 322.874 86.0428 322.874 71.4468C322.874 56.9018 330.518 46.7969 343.477 46.7969C356.437 46.7969 364.08 56.9018 364.08 71.4468C364.131 86.0428 356.437 96.1477 343.477 96.1477ZM343.477 56.2894C335.833 56.2894 332.644 62.924 332.644 71.4468C332.644 79.9696 335.833 86.6042 343.477 86.6042C351.121 86.6042 354.31 79.9696 354.31 71.4468C354.361 62.924 351.172 56.2894 343.477 56.2894Z" fill="#221F1F"/>
<path d="M442.886 78.4374H432.458V95.381H422.941V47.5612H443.696C452.656 47.5612 460.047 52.5626 460.047 62.7186C460.047 73.7932 452.706 78.4374 442.886 78.4374ZM443.341 56.8496H432.407V69.149H443.443C447.847 69.149 450.226 67.1076 450.226 62.9228C450.277 58.7889 447.543 56.8496 443.341 56.8496Z" fill="#221F1F"/>
<path d="M464.964 95.381V47.5612H474.481V85.9906H498.273V95.381H464.964Z" fill="#221F1F"/>
<path d="M535.89 95.381L532.194 84.7147H514.831L511.085 95.381H500.91L519.083 47.5612H528.296L546.318 95.381H535.89ZM525.866 66.9545C524.905 64.1476 523.993 61.2896 523.487 59.5034C523.032 61.2896 522.07 64.1476 521.108 66.9545L518.071 75.6305H528.904L525.866 66.9545Z" fill="#221F1F"/>
<path d="M579.66 95.381L562.247 69.2511C561.082 67.4649 559.513 65.0662 558.906 63.8414C558.906 65.6276 559.057 71.6497 559.057 74.3036V95.381H549.692V47.5612H558.754L575.56 72.8235C576.724 74.6098 578.294 77.0084 578.901 78.2332C578.901 76.447 578.749 70.4249 578.749 67.7711V47.5612H588.114V95.381H579.66Z" fill="#221F1F"/>
<path d="M614.407 96.1477C601.448 96.1477 593.804 86.0428 593.804 71.4468C593.804 56.9018 601.448 46.7969 614.407 46.7969C627.366 46.7969 635.01 56.9018 635.01 71.4468C635.01 86.0428 627.366 96.1477 614.407 96.1477ZM614.407 56.2894C606.763 56.2894 603.574 62.924 603.574 71.4468C603.574 79.9696 606.763 86.6042 614.407 86.6042C622.051 86.6042 625.24 79.9696 625.24 71.4468C625.291 62.924 622.051 56.2894 614.407 56.2894Z" fill="#221F1F"/>
</svg>
